<mxfile host="app.diagrams.net" agent="Mozilla/5.0 (Windows NT 10.0; Win64; x64) AppleWebKit/537.36 (KHTML, like Gecko) Chrome/135.0.0.0 Safari/537.36" version="26.2.14">
  <diagram name="Página-1" id="Itc1IvbycG4DVD11OwY0">
    <mxGraphModel grid="0" page="1" gridSize="10" guides="1" tooltips="1" connect="1" arrows="1" fold="1" pageScale="1" pageWidth="827" pageHeight="1169" math="0" shadow="0">
      <root>
        <mxCell id="0" />
        <mxCell id="1" parent="0" />
        <object label="Actor" placeholders="1" id="Uv0ULkwbrZTuB33qiIxk-1">
          <mxCell style="shape=umlActor;verticalLabelPosition=bottom;verticalAlign=top;html=1;outlineConnect=0;" vertex="1" parent="1">
            <mxGeometry x="120" y="190" width="30" height="60" as="geometry" />
          </mxCell>
        </object>
        <mxCell id="Uv0ULkwbrZTuB33qiIxk-2" value="" style="ellipse;whiteSpace=wrap;html=1;" vertex="1" parent="1">
          <mxGeometry x="250" y="90" width="120" height="80" as="geometry" />
        </mxCell>
        <mxCell id="Uv0ULkwbrZTuB33qiIxk-3" value="" style="ellipse;whiteSpace=wrap;html=1;" vertex="1" parent="1">
          <mxGeometry x="250" y="235" width="120" height="80" as="geometry" />
        </mxCell>
        <mxCell id="Uv0ULkwbrZTuB33qiIxk-4" value="" style="ellipse;whiteSpace=wrap;html=1;" vertex="1" parent="1">
          <mxGeometry x="250" y="395" width="120" height="80" as="geometry" />
        </mxCell>
        <mxCell id="Uv0ULkwbrZTuB33qiIxk-5" value="" style="endArrow=classic;html=1;rounded=0;exitX=1;exitY=0.3333333333333333;exitDx=0;exitDy=0;exitPerimeter=0;entryX=0.062;entryY=0.776;entryDx=0;entryDy=0;entryPerimeter=0;" edge="1" parent="1" source="Uv0ULkwbrZTuB33qiIxk-1" target="Uv0ULkwbrZTuB33qiIxk-2">
          <mxGeometry width="50" height="50" relative="1" as="geometry">
            <mxPoint x="180" y="190" as="sourcePoint" />
            <mxPoint x="230" y="140" as="targetPoint" />
          </mxGeometry>
        </mxCell>
        <mxCell id="Uv0ULkwbrZTuB33qiIxk-6" value="Acessar página de login" style="text;strokeColor=none;align=center;fillColor=none;html=1;verticalAlign=middle;whiteSpace=wrap;rounded=0;" vertex="1" parent="1">
          <mxGeometry x="260" y="115" width="100" height="30" as="geometry" />
        </mxCell>
        <mxCell id="Uv0ULkwbrZTuB33qiIxk-7" value="Informar e-mail e senha" style="text;strokeColor=none;align=center;fillColor=none;html=1;verticalAlign=middle;whiteSpace=wrap;rounded=0;" vertex="1" parent="1">
          <mxGeometry x="265" y="260" width="90" height="30" as="geometry" />
        </mxCell>
        <mxCell id="Uv0ULkwbrZTuB33qiIxk-8" value="Verificar credenciais" style="text;strokeColor=none;align=center;fillColor=none;html=1;verticalAlign=middle;whiteSpace=wrap;rounded=0;" vertex="1" parent="1">
          <mxGeometry x="280" y="420" width="60" height="30" as="geometry" />
        </mxCell>
        <mxCell id="Uv0ULkwbrZTuB33qiIxk-9" value="" style="ellipse;whiteSpace=wrap;html=1;" vertex="1" parent="1">
          <mxGeometry x="440" y="490" width="120" height="80" as="geometry" />
        </mxCell>
        <mxCell id="Uv0ULkwbrZTuB33qiIxk-10" value="Exibir mensagem de erro &lt;em data-end=&quot;699&quot; data-start=&quot;661&quot;&gt;(em caso de erro de e-mail ou senha)&lt;/em&gt;" style="text;strokeColor=none;align=center;fillColor=none;html=1;verticalAlign=middle;whiteSpace=wrap;rounded=0;" vertex="1" parent="1">
          <mxGeometry x="446" y="520" width="108" height="30" as="geometry" />
        </mxCell>
        <mxCell id="Uv0ULkwbrZTuB33qiIxk-11" value="" style="endArrow=none;dashed=1;html=1;dashPattern=1 3;strokeWidth=2;rounded=0;exitX=0.983;exitY=0.665;exitDx=0;exitDy=0;exitPerimeter=0;" edge="1" parent="1" source="Uv0ULkwbrZTuB33qiIxk-4" target="Uv0ULkwbrZTuB33qiIxk-9">
          <mxGeometry width="50" height="50" relative="1" as="geometry">
            <mxPoint x="390" y="380" as="sourcePoint" />
            <mxPoint x="440" y="330" as="targetPoint" />
          </mxGeometry>
        </mxCell>
        <mxCell id="Uv0ULkwbrZTuB33qiIxk-12" value="" style="endArrow=none;html=1;rounded=0;exitX=0.5;exitY=1;exitDx=0;exitDy=0;entryX=0.5;entryY=0;entryDx=0;entryDy=0;" edge="1" parent="1" source="Uv0ULkwbrZTuB33qiIxk-2" target="Uv0ULkwbrZTuB33qiIxk-3">
          <mxGeometry width="50" height="50" relative="1" as="geometry">
            <mxPoint x="390" y="380" as="sourcePoint" />
            <mxPoint x="440" y="330" as="targetPoint" />
          </mxGeometry>
        </mxCell>
        <mxCell id="Uv0ULkwbrZTuB33qiIxk-13" value="" style="endArrow=none;html=1;rounded=0;entryX=0.5;entryY=1;entryDx=0;entryDy=0;exitX=0.5;exitY=0;exitDx=0;exitDy=0;" edge="1" parent="1" source="Uv0ULkwbrZTuB33qiIxk-4" target="Uv0ULkwbrZTuB33qiIxk-3">
          <mxGeometry width="50" height="50" relative="1" as="geometry">
            <mxPoint x="390" y="380" as="sourcePoint" />
            <mxPoint x="440" y="330" as="targetPoint" />
          </mxGeometry>
        </mxCell>
        <mxCell id="Uv0ULkwbrZTuB33qiIxk-14" value="&amp;lt;&amp;lt;Extend&amp;gt;&amp;gt;" style="text;strokeColor=none;align=center;fillColor=none;html=1;verticalAlign=middle;whiteSpace=wrap;rounded=0;" vertex="1" parent="1">
          <mxGeometry x="414" y="430" width="60" height="30" as="geometry" />
        </mxCell>
        <mxCell id="Uv0ULkwbrZTuB33qiIxk-15" value="&amp;lt;&amp;lt;Include&amp;gt;&amp;gt;" style="text;strokeColor=none;align=center;fillColor=none;html=1;verticalAlign=middle;whiteSpace=wrap;rounded=0;" vertex="1" parent="1">
          <mxGeometry x="230" y="340" width="60" height="30" as="geometry" />
        </mxCell>
        <mxCell id="Uv0ULkwbrZTuB33qiIxk-16" value="" style="ellipse;whiteSpace=wrap;html=1;" vertex="1" parent="1">
          <mxGeometry x="150" y="550" width="120" height="80" as="geometry" />
        </mxCell>
        <mxCell id="Uv0ULkwbrZTuB33qiIxk-17" value="" style="endArrow=none;html=1;rounded=0;entryX=0.326;entryY=0.96;entryDx=0;entryDy=0;entryPerimeter=0;exitX=0.669;exitY=0.007;exitDx=0;exitDy=0;exitPerimeter=0;" edge="1" parent="1" source="Uv0ULkwbrZTuB33qiIxk-16" target="Uv0ULkwbrZTuB33qiIxk-4">
          <mxGeometry width="50" height="50" relative="1" as="geometry">
            <mxPoint x="390" y="380" as="sourcePoint" />
            <mxPoint x="440" y="330" as="targetPoint" />
          </mxGeometry>
        </mxCell>
        <mxCell id="Uv0ULkwbrZTuB33qiIxk-18" value="Conceder acesso&amp;nbsp;" style="text;strokeColor=none;align=center;fillColor=none;html=1;verticalAlign=middle;whiteSpace=wrap;rounded=0;" vertex="1" parent="1">
          <mxGeometry x="170" y="575" width="80" height="30" as="geometry" />
        </mxCell>
      </root>
    </mxGraphModel>
  </diagram>
</mxfile>
